<?xml version="1.0" encoding="UTF-8"?>
<svg id="Camada_1" xmlns="http://www.w3.org/2000/svg" version="1.1" viewBox="0 0 259.2 259.2">
  <!-- Generator: Adobe Illustrator 30.2.1, SVG Export Plug-In . SVG Version: 2.1.1 Build 1)  -->
  <defs>
    <style>
      .st0, .st1 {
        fill: #f6d2af;
      }

      .st1 {
        fill-rule: evenodd;
      }
    </style>
  </defs>
  <path class="st0" d="M217.36,140.61h-13.66v-12.3h13.54v2.84h-9.72v1.64h5.67v2.84h-5.67v1.95h9.84v3.03ZM200.26,140.61h-13.66v-12.3h13.54v2.84h-9.72v1.64h5.67v2.84h-5.67v1.95h9.84v3.03ZM184.89,131.19h-9.58v2.12h5.17v2.96h-5.17v4.34h-3.81v-12.3h13.39v2.88ZM169.8,131.19h-9.58v2.12h5.17v2.96h-5.17v4.34h-3.81v-12.3h13.39v2.88ZM148.4,137.58v-6.34h-8.48v6.34h8.48ZM152.22,137.46c0,1.27-.28,2.13-.83,2.57-.48.38-1.37.57-2.69.57h-9.06c-1.32,0-2.22-.19-2.69-.57-.56-.44-.83-1.3-.83-2.57v-6.01c0-1.27.28-2.13.83-2.57.48-.38,1.37-.57,2.69-.57h9.06c1.32,0,2.22.19,2.69.57.56.44.83,1.3.83,2.57v6.01ZM132.31,137.46c0,1.27-.28,2.13-.83,2.57-.48.38-1.37.57-2.69.57h-7.34c-1.32,0-2.22-.19-2.69-.57-.56-.44-.83-1.3-.83-2.57v-6.01c0-1.27.28-2.13.83-2.57.48-.38,1.37-.57,2.69-.57h7.34c1.32,0,2.22.19,2.69.57.56.44.83,1.3.83,2.57v1.45l-3.81.57v-2.24h-6.77v6.34h6.77v-2.57l3.81.74v1.72Z"/>
  <path class="st0" d="M209.34,156.97h-13.66v-12.3h13.54v2.84h-9.72v1.64h5.67v2.84h-5.67v1.95h9.84v3.03ZM191.59,153.83c0,1.26-.29,2.11-.86,2.55-.49.4-1.39.6-2.69.6h-7.6c-1.53,0-2.51-.28-2.96-.83-.4-.46-.6-1.46-.6-3l3.48-.64v1.45h7.75v-1.74h-7.2c-1.32,0-2.22-.19-2.69-.57-.56-.43-.83-1.28-.83-2.55v-1.26c0-1.27.28-2.13.83-2.57.48-.38,1.37-.57,2.69-.57h6.98c1.24,0,2.11.17,2.62.52.6.43.91,1.23.91,2.41v.6l-3.48.76v-1.41h-7.1v1.57h7.2c1.32,0,2.22.19,2.69.57.57.45.86,1.3.86,2.55v1.57ZM172.85,153.83c0,1.27-.28,2.13-.83,2.57-.48.38-1.37.57-2.69.57h-7.77c-1.32,0-2.22-.19-2.69-.57-.56-.44-.83-1.3-.83-2.57v-9.15h3.81v9.27h7.2v-9.27h3.81v9.15ZM150.03,153.95v-6.34h-8.48v6.34h8.48ZM153.84,153.83c0,1.27-.28,2.13-.83,2.57-.48.38-1.37.57-2.69.57h-9.06c-1.32,0-2.22-.19-2.69-.57-.56-.44-.83-1.3-.83-2.57v-6.01c0-1.27.28-2.13.83-2.57.48-.38,1.37-.57,2.69-.57h9.06c1.32,0,2.22.19,2.69.57.56.44.83,1.3.83,2.57v6.01ZM133.55,156.97h-3.84v-4.91h-7.98v4.91h-3.81v-12.3h3.81v4.43h7.98v-4.43h3.84v12.3Z"/>
  <path class="st0" d="M67.17,135.5l1.09,3.32c.14.44.53.72.99.72h16.23c.46,0,.85-.28.99-.72l1.09-3.32c.14-.44.53-.72.99-.72h3.29c.35,0,.65.15.85.43.2.28.25.61.15.94l-4.17,12.65c-.14.44-.53.72-.99.72h-3.69c-.58,0-1.05-.47-1.05-1.05v-2.71c0-.58.47-1.05,1.05-1.05h.56l-2.06-1.25v-2.32h-1.85v1.19l-2.73-1.67c-.34-.21-.75-.21-1.09,0l-6.57,4.05h.49c.58,0,1.05.47,1.05,1.05v2.71c0,.58-.47,1.05-1.05,1.05h-3.69c-.46,0-.85-.28-.99-.72l-4.17-12.65c-.11-.33-.06-.66.15-.94.2-.28.5-.43.85-.43h3.29c.46,0,.85.28.99.72M52.38,131.51c.32,0,.63.02.93.05-.48.77-.79,1.61-.92,2.5-.14.89-.1,1.79.12,2.67h-.14c-.85,0-1.62.34-2.18.9h0c-.55.55-.9,1.32-.9,2.18s.34,1.63.9,2.18c.56.55,1.33.9,2.18.9.73,0,1.4-.25,1.93-.67l1.67,5.06c-1.09.53-2.31.82-3.59.82-2.28,0-4.36-.93-5.86-2.43h-.01c-1.5-1.51-2.43-3.58-2.43-5.87s.93-4.36,2.43-5.86h0c1.5-1.51,3.58-2.44,5.87-2.44ZM101.79,152.13c6.85,1.13,11.12,2.72,11.12,4.49,0,3.41-15.91,6.18-35.53,6.18s-35.53-2.77-35.53-6.18c0-1.77,4.27-3.36,11.12-4.49-1.13.51-1.75,1.06-1.75,1.64,0,2.51,11.71,4.55,26.16,4.55s26.16-2.04,26.16-4.55c0-.58-.62-1.13-1.75-1.64ZM77.74,144.78h1.12v1.12h-1.12v-1.12ZM75.89,146.48h1.12v1.12h-1.12v-1.12ZM77.74,146.48h1.12v1.12h-1.12v-1.12ZM75.89,144.78h1.12v1.12h-1.12v-1.12ZM60.6,128.31h33.56c1.09,0,2.14.25,3.09.74.95.48,1.76,1.18,2.41,2.07.65.89,1.05,1.89,1.22,2.94.16,1.02.08,2.06-.24,3.07h-5.49l.51-1.54c.09-.27.12-.52.08-.74-.03-.22-.13-.45-.3-.67-.17-.23-.35-.4-.55-.5-.19-.1-.44-.15-.73-.15h-33.56c-.29,0-.53.05-.73.15-.2.1-.38.27-.55.5-.17.23-.27.46-.3.67-.03.22,0,.47.08.74l4.65,14.11c.11.34.31.61.56.79.25.18.57.28.93.28h24.26c.36,0,.68-.1.93-.28h.01c.24-.18.44-.45.55-.79l.84-2.56h5.49l-1.38,4.19c-.46,1.39-1.33,2.56-2.46,3.38h0c-1.13.82-2.51,1.29-3.99,1.29h-24.26c-1.48,0-2.85-.46-3.99-1.28-1.13-.82-2-1.98-2.46-3.38l-4.65-14.11c-.34-1.04-.43-2.11-.27-3.16.16-1.05.57-2.05,1.22-2.94.64-.89,1.46-1.59,2.41-2.07.95-.49,1.99-.74,3.09-.74Z"/>
  <path class="st1" d="M77.53,96.75c-3.97,9.86,10.61,16.33-2.21,30.48-.08.09-.19.09-.28.02-.09-.08-.11-.21-.06-.32,6.41-12.43-10.05-17.19,2.2-30.46.07-.08.19-.09.27-.02.09.07.12.19.07.3"/>
</svg>